# xmcd
#
# Track frame offsets: 
#        150
#        18642
#        38604
#        60852
#        92277
#        108897
#        126230
#        137030
#        156797
#        175232
#        193612
#        208610
#
# Disc length: 3157 seconds
#
# Revision: 5
# Processed by: cddbd v1.5.2PL0 Copyright (c) Steve Scherf et al.
# Submitted via: ExactAudioCopyFreeDBPlugin 1.0
#
DISCID=940c530c
DTITLE=Livin' Blues - Out of the blue
DYEAR=1995
DGENRE=Blues
TTITLE0=Mysterios Ways
TTITLE1=Blue side of life
TTITLE2=Voodoo dancer
TTITLE3=Skidrow
TTITLE4=Who are you
TTITLE5=Who's doing that Voodoo
TTITLE6=Hear me out
TTITLE7=Blueshouse
TTITLE8=Just wanna make love to you
TTITLE9=Crazy
TTITLE10=Don't worry, baby
TTITLE11=Red lights
EXTD=YEAR: 1995
EXTT0=
EXTT1=
EXTT2=
EXTT3=
EXTT4=
EXTT5=
EXTT6=
EXTT7=
EXTT8=
EXTT9=
EXTT10=
EXTT11=
PLAYORDER=
